<svg xmlns="http://www.w3.org/2000/svg" xmlns:xlink="http://www.w3.org/1999/xlink" width="2000" zoomAndPan="magnify" viewBox="0 0 1500 1499.999933" height="2000" preserveAspectRatio="xMidYMid meet" version="1.0"><defs><clipPath id="d6e67af17a"><path d="M 450 450 L 1050 450 L 1050 1050 L 450 1050 Z M 450 450 " clip-rule="nonzero"/></clipPath><clipPath id="b59731c202"><path d="M 1049.949219 750.007812 C 1049.949219 754.917969 1049.832031 759.824219 1049.589844 764.726562 C 1049.347656 769.632812 1048.988281 774.527344 1048.507812 779.414062 C 1048.023438 784.296875 1047.425781 789.167969 1046.703125 794.027344 C 1045.984375 798.882812 1045.144531 803.71875 1044.1875 808.535156 C 1043.226562 813.347656 1042.152344 818.136719 1040.960938 822.902344 C 1039.765625 827.664062 1038.457031 832.394531 1037.03125 837.09375 C 1035.609375 841.789062 1034.066406 846.453125 1032.414062 851.074219 C 1030.761719 855.695312 1028.992188 860.277344 1027.113281 864.8125 C 1025.234375 869.347656 1023.246094 873.835938 1021.148438 878.273438 C 1019.046875 882.710938 1016.839844 887.097656 1014.527344 891.425781 C 1012.210938 895.757812 1009.792969 900.027344 1007.269531 904.238281 C 1004.746094 908.449219 1002.121094 912.597656 999.390625 916.679688 C 996.664062 920.761719 993.835938 924.773438 990.914062 928.71875 C 987.988281 932.660156 984.96875 936.53125 981.855469 940.324219 C 978.738281 944.121094 975.53125 947.835938 972.234375 951.476562 C 968.9375 955.113281 965.554688 958.667969 962.082031 962.140625 C 958.609375 965.609375 955.054688 968.996094 951.417969 972.292969 C 947.78125 975.589844 944.0625 978.796875 940.269531 981.910156 C 936.472656 985.023438 932.605469 988.042969 928.660156 990.96875 C 924.71875 993.894531 920.703125 996.71875 916.621094 999.449219 C 912.539062 1002.175781 908.394531 1004.800781 904.179688 1007.324219 C 899.96875 1009.851562 895.699219 1012.269531 891.371094 1014.582031 C 887.039062 1016.898438 882.65625 1019.105469 878.21875 1021.203125 C 873.777344 1023.304688 869.292969 1025.292969 864.753906 1027.171875 C 860.21875 1029.050781 855.640625 1030.816406 851.019531 1032.46875 C 846.394531 1034.125 841.734375 1035.664062 837.035156 1037.089844 C 832.335938 1038.515625 827.605469 1039.824219 822.84375 1041.015625 C 818.082031 1042.210938 813.292969 1043.285156 808.476562 1044.242188 C 803.664062 1045.199219 798.828125 1046.039062 793.96875 1046.761719 C 789.113281 1047.480469 784.242188 1048.082031 779.355469 1048.5625 C 774.46875 1049.042969 769.574219 1049.40625 764.671875 1049.644531 C 759.765625 1049.886719 754.859375 1050.007812 749.949219 1050.007812 C 745.039062 1050.007812 740.132812 1049.886719 735.230469 1049.644531 C 730.328125 1049.40625 725.433594 1049.042969 720.546875 1048.5625 C 715.660156 1048.082031 710.789062 1047.480469 705.929688 1046.761719 C 701.074219 1046.039062 696.238281 1045.199219 691.421875 1044.242188 C 686.609375 1043.285156 681.820312 1042.210938 677.058594 1041.015625 C 672.292969 1039.824219 667.5625 1038.515625 662.867188 1037.089844 C 658.167969 1035.664062 653.507812 1034.125 648.882812 1032.46875 C 644.261719 1030.816406 639.683594 1029.050781 635.144531 1027.171875 C 630.609375 1025.292969 626.121094 1023.304688 621.683594 1021.203125 C 617.246094 1019.105469 612.863281 1016.898438 608.53125 1014.582031 C 604.203125 1012.269531 599.929688 1009.851562 595.71875 1007.324219 C 591.507812 1004.800781 587.363281 1002.175781 583.28125 999.449219 C 579.199219 996.71875 575.183594 993.894531 571.242188 990.96875 C 567.296875 988.042969 563.429688 985.023438 559.632812 981.910156 C 555.835938 978.796875 552.121094 975.589844 548.484375 972.292969 C 544.84375 968.996094 541.289062 965.609375 537.820312 962.140625 C 534.347656 958.667969 530.960938 955.113281 527.664062 951.476562 C 524.367188 947.835938 521.164062 944.121094 518.046875 940.324219 C 514.933594 936.53125 511.914062 932.660156 508.988281 928.71875 C 506.0625 924.773438 503.238281 920.761719 500.511719 916.679688 C 497.78125 912.597656 495.15625 908.449219 492.632812 904.238281 C 490.109375 900.027344 487.6875 895.757812 485.375 891.425781 C 483.058594 887.097656 480.851562 882.710938 478.753906 878.273438 C 476.65625 873.835938 474.664062 869.347656 472.785156 864.8125 C 470.90625 860.277344 469.140625 855.695312 467.488281 851.074219 C 465.832031 846.453125 464.292969 841.789062 462.867188 837.09375 C 461.445312 832.394531 460.132812 827.664062 458.941406 822.902344 C 457.75 818.136719 456.671875 813.347656 455.714844 808.535156 C 454.757812 803.71875 453.917969 798.882812 453.199219 794.027344 C 452.476562 789.167969 451.875 784.296875 451.394531 779.414062 C 450.914062 774.527344 450.554688 769.632812 450.3125 764.726562 C 450.070312 759.824219 449.949219 754.917969 449.949219 750.007812 C 449.949219 745.097656 450.070312 740.191406 450.3125 735.285156 C 450.554688 730.382812 450.914062 725.488281 451.394531 720.601562 C 451.875 715.714844 452.476562 710.84375 453.199219 705.988281 C 453.917969 701.132812 454.757812 696.296875 455.714844 691.480469 C 456.671875 686.664062 457.75 681.875 458.941406 677.113281 C 460.132812 672.351562 461.445312 667.621094 462.867188 662.921875 C 464.292969 658.222656 465.832031 653.5625 467.488281 648.941406 C 469.140625 644.316406 470.90625 639.738281 472.785156 635.203125 C 474.664062 630.667969 476.65625 626.179688 478.753906 621.742188 C 480.851562 617.300781 483.058594 612.917969 485.375 608.589844 C 487.6875 604.257812 490.109375 599.988281 492.632812 595.777344 C 495.15625 591.566406 497.78125 587.417969 500.511719 583.335938 C 503.238281 579.253906 506.0625 575.242188 508.988281 571.296875 C 511.914062 567.355469 514.933594 563.484375 518.046875 559.6875 C 521.164062 555.894531 524.367188 552.175781 527.664062 548.539062 C 530.960938 544.902344 534.347656 541.347656 537.820312 537.875 C 541.289062 534.402344 544.84375 531.019531 548.484375 527.722656 C 552.121094 524.425781 555.835938 521.21875 559.632812 518.105469 C 563.429688 514.988281 567.296875 511.96875 571.242188 509.042969 C 575.183594 506.121094 579.199219 503.292969 583.28125 500.566406 C 587.363281 497.839844 591.507812 495.210938 595.71875 492.6875 C 599.929688 490.164062 604.203125 487.746094 608.53125 485.429688 C 612.863281 483.117188 617.246094 480.910156 621.683594 478.808594 C 626.121094 476.710938 630.609375 474.722656 635.144531 472.84375 C 639.683594 470.964844 644.261719 469.199219 648.882812 467.542969 C 653.507812 465.890625 658.167969 464.351562 662.867188 462.925781 C 667.5625 461.5 672.292969 460.191406 677.058594 458.996094 C 681.820312 457.804688 686.609375 456.730469 691.421875 455.773438 C 696.238281 454.8125 701.074219 453.972656 705.929688 453.253906 C 710.789062 452.535156 715.660156 451.933594 720.546875 451.453125 C 725.433594 450.96875 730.328125 450.609375 735.230469 450.367188 C 740.132812 450.128906 745.039062 450.007812 749.949219 450.007812 C 754.859375 450.007812 759.765625 450.128906 764.671875 450.367188 C 769.574219 450.609375 774.46875 450.96875 779.355469 451.453125 C 784.242188 451.933594 789.113281 452.535156 793.96875 453.253906 C 798.828125 453.972656 803.664062 454.8125 808.476562 455.773438 C 813.292969 456.730469 818.082031 457.804688 822.84375 458.996094 C 827.605469 460.191406 832.335938 461.5 837.035156 462.925781 C 841.734375 464.351562 846.394531 465.890625 851.019531 467.542969 C 855.640625 469.199219 860.21875 470.964844 864.753906 472.84375 C 869.292969 474.722656 873.777344 476.710938 878.21875 478.808594 C 882.65625 480.910156 887.039062 483.117188 891.371094 485.429688 C 895.699219 487.746094 899.96875 490.164062 904.179688 492.6875 C 908.394531 495.210938 912.539062 497.839844 916.621094 500.566406 C 920.703125 503.292969 924.71875 506.121094 928.660156 509.042969 C 932.605469 511.96875 936.472656 514.988281 940.269531 518.105469 C 944.0625 521.21875 947.78125 524.425781 951.417969 527.722656 C 955.054688 531.019531 958.609375 534.402344 962.082031 537.875 C 965.554688 541.347656 968.9375 544.902344 972.234375 548.539062 C 975.53125 552.175781 978.738281 555.894531 981.855469 559.6875 C 984.96875 563.484375 987.988281 567.355469 990.914062 571.296875 C 993.835938 575.242188 996.664062 579.253906 999.390625 583.335938 C 1002.121094 587.417969 1004.746094 591.566406 1007.269531 595.777344 C 1009.792969 599.988281 1012.210938 604.257812 1014.527344 608.589844 C 1016.839844 612.917969 1019.046875 617.300781 1021.148438 621.742188 C 1023.246094 626.179688 1025.234375 630.667969 1027.113281 635.203125 C 1028.992188 639.738281 1030.761719 644.316406 1032.414062 648.941406 C 1034.066406 653.5625 1035.609375 658.222656 1037.03125 662.921875 C 1038.457031 667.621094 1039.765625 672.351562 1040.960938 677.113281 C 1042.152344 681.875 1043.226562 686.664062 1044.1875 691.480469 C 1045.144531 696.296875 1045.984375 701.132812 1046.703125 705.988281 C 1047.425781 710.84375 1048.023438 715.714844 1048.507812 720.601562 C 1048.988281 725.488281 1049.347656 730.382812 1049.589844 735.285156 C 1049.832031 740.191406 1049.949219 745.097656 1049.949219 750.007812 Z M 1049.949219 750.007812 " clip-rule="nonzero"/></clipPath><linearGradient x1="0.0000821282" gradientTransform="matrix(599.565893, 0, 0, 599.566013, 449.950753, 749.789987)" y1="0" x2="1.000724" gradientUnits="userSpaceOnUse" y2="0" id="467c2637cb"><stop stop-opacity="1" stop-color="rgb(16.468811%, 67.059326%, 93.328857%)" offset="0"/><stop stop-opacity="1" stop-color="rgb(16.419983%, 66.978455%, 93.199158%)" offset="0.03125"/><stop stop-opacity="1" stop-color="rgb(16.320801%, 66.819763%, 92.941284%)" offset="0.0625"/><stop stop-opacity="1" stop-color="rgb(16.223145%, 66.659546%, 92.684937%)" offset="0.09375"/><stop stop-opacity="1" stop-color="rgb(16.125488%, 66.500854%, 92.427063%)" offset="0.125"/><stop stop-opacity="1" stop-color="rgb(16.026306%, 66.340637%, 92.170715%)" offset="0.15625"/><stop stop-opacity="1" stop-color="rgb(15.92865%, 66.181946%, 91.912842%)" offset="0.1875"/><stop stop-opacity="1" stop-color="rgb(15.830994%, 66.021729%, 91.654968%)" offset="0.21875"/><stop stop-opacity="1" stop-color="rgb(15.731812%, 65.863037%, 91.398621%)" offset="0.25"/><stop stop-opacity="1" stop-color="rgb(15.634155%, 65.70282%, 91.140747%)" offset="0.28125"/><stop stop-opacity="1" stop-color="rgb(15.536499%, 65.544128%, 90.882874%)" offset="0.3125"/><stop stop-opacity="1" stop-color="rgb(15.437317%, 65.383911%, 90.626526%)" offset="0.34375"/><stop stop-opacity="1" stop-color="rgb(15.339661%, 65.223694%, 90.368652%)" offset="0.375"/><stop stop-opacity="1" stop-color="rgb(15.242004%, 65.065002%, 90.110779%)" offset="0.40625"/><stop stop-opacity="1" stop-color="rgb(15.142822%, 64.904785%, 89.854431%)" offset="0.4375"/><stop stop-opacity="1" stop-color="rgb(15.045166%, 64.746094%, 89.596558%)" offset="0.46875"/><stop stop-opacity="1" stop-color="rgb(14.94751%, 64.585876%, 89.338684%)" offset="0.5"/><stop stop-opacity="1" stop-color="rgb(14.848328%, 64.427185%, 89.082336%)" offset="0.53125"/><stop stop-opacity="1" stop-color="rgb(14.750671%, 64.266968%, 88.824463%)" offset="0.5625"/><stop stop-opacity="1" stop-color="rgb(14.651489%, 64.108276%, 88.566589%)" offset="0.59375"/><stop stop-opacity="1" stop-color="rgb(14.553833%, 63.948059%, 88.310242%)" offset="0.625"/><stop stop-opacity="1" stop-color="rgb(14.456177%, 63.789368%, 88.052368%)" offset="0.65625"/><stop stop-opacity="1" stop-color="rgb(14.356995%, 63.62915%, 87.794495%)" offset="0.6875"/><stop stop-opacity="1" stop-color="rgb(14.259338%, 63.470459%, 87.538147%)" offset="0.71875"/><stop stop-opacity="1" stop-color="rgb(14.161682%, 63.310242%, 87.280273%)" offset="0.75"/><stop stop-opacity="1" stop-color="rgb(14.0625%, 63.15155%, 87.0224%)" offset="0.78125"/><stop stop-opacity="1" stop-color="rgb(13.964844%, 62.991333%, 86.766052%)" offset="0.8125"/><stop stop-opacity="1" stop-color="rgb(13.867188%, 62.832642%, 86.508179%)" offset="0.84375"/><stop stop-opacity="1" stop-color="rgb(13.768005%, 62.672424%, 86.250305%)" offset="0.875"/><stop stop-opacity="1" stop-color="rgb(13.670349%, 62.513733%, 85.993958%)" offset="0.90625"/><stop stop-opacity="1" stop-color="rgb(13.572693%, 62.353516%, 85.736084%)" offset="0.9375"/><stop stop-opacity="1" stop-color="rgb(13.473511%, 62.194824%, 85.47821%)" offset="0.96875"/><stop stop-opacity="1" stop-color="rgb(13.375854%, 62.037659%, 85.224915%)" offset="1"/></linearGradient></defs><g clip-path="url(#d6e67af17a)"><g clip-path="url(#b59731c202)"><path fill="url(#467c2637cb)" d="M 450 450.007812 L 450 1050 L 1049.949219 1050 L 1049.949219 450.007812 Z M 450 450.007812 " fill-rule="nonzero"/></g></g><path fill="#ffffff" d="M 585.464844 746.734375 C 672.847656 708.417969 731.257812 683.652344 760.699219 671.503906 C 843.875 636.921875 861.164062 630.847656 872.378906 630.382812 C 874.71875 630.382812 880.324219 630.847656 884.0625 633.652344 C 886.867188 635.988281 887.800781 639.257812 888.269531 641.597656 C 888.734375 643.933594 889.203125 649.074219 888.734375 653.277344 C 884.0625 700.472656 864.902344 815.894531 854.625 868.699219 C 850.417969 891.128906 842.007812 898.605469 834.0625 899.539062 C 816.773438 900.941406 803.222656 887.859375 786.398438 877.109375 C 760.230469 859.820312 745.277344 849.074219 719.578125 832.25 C 690.136719 812.625 709.296875 801.875 726.117188 784.585938 C 730.324219 779.914062 807.425781 710.289062 808.828125 703.746094 C 808.828125 702.8125 809.296875 700.007812 807.425781 698.605469 C 805.558594 697.203125 803.222656 697.671875 801.351562 698.136719 C 798.550781 698.605469 756.492188 726.644531 674.71875 781.78125 C 662.566406 790.195312 651.820312 793.933594 642.007812 793.933594 C 631.257812 793.933594 610.699219 787.859375 595.277344 782.71875 C 576.585938 776.644531 561.632812 773.371094 563.035156 763.089844 C 563.96875 757.949219 571.445312 752.34375 585.464844 746.734375 Z M 585.464844 746.734375 " fill-opacity="1" fill-rule="evenodd"/></svg>